<?xml version="1.0" encoding="UTF-8" standalone="no"?>
<!-- Creator: CorelDRAW X7 -->

<svg
   xmlns:dc="http://purl.org/dc/elements/1.1/"
   xmlns:cc="http://creativecommons.org/ns#"
   xmlns:rdf="http://www.w3.org/1999/02/22-rdf-syntax-ns#"
   xmlns:svg="http://www.w3.org/2000/svg"
   xmlns="http://www.w3.org/2000/svg"
   xmlns:xlink="http://www.w3.org/1999/xlink"
   xmlns:sodipodi="http://sodipodi.sourceforge.net/DTD/sodipodi-0.dtd"
   xmlns:inkscape="http://www.inkscape.org/namespaces/inkscape"
   xml:space="preserve"
   width="1728"
   height="1344"
   version="1.1"
   style="clip-rule:evenodd;fill-rule:evenodd;image-rendering:optimizeQuality;shape-rendering:geometricPrecision;text-rendering:geometricPrecision"
   viewBox="0 0 45719.999 35560"
   id="svg1944"
   sodipodi:docname="Tile.svg"
   inkscape:version="0.92.1 r15371"><metadata
   id="metadata1948"><rdf:RDF><cc:Work
       rdf:about=""><dc:format>image/svg+xml</dc:format><dc:type
         rdf:resource="http://purl.org/dc/dcmitype/StillImage" /><dc:title></dc:title></cc:Work></rdf:RDF></metadata><sodipodi:namedview
   pagecolor="#ffffff"
   bordercolor="#666666"
   borderopacity="1"
   objecttolerance="10"
   gridtolerance="10"
   guidetolerance="10"
   inkscape:pageopacity="0"
   inkscape:pageshadow="2"
   inkscape:window-width="1280"
   inkscape:window-height="701"
   id="namedview1946"
   showgrid="false"
   inkscape:zoom="0.2102413"
   inkscape:cx="811.55787"
   inkscape:cy="650.52247"
   inkscape:window-x="-4"
   inkscape:window-y="-4"
   inkscape:window-maximized="1"
   inkscape:current-layer="svg1944"
   units="px" />
 <defs
   id="defs39">
  <style
   type="text/css"
   id="style2">
   <![CDATA[
    .str1 {stroke:#74402D;stroke-width:20}
    .str0 {stroke:#43241A;stroke-width:47.44}
    .fil10 {fill:none}
    .fil16 {fill:black}
    .fil41 {fill:black}
    .fil27 {fill:#070605}
    .fil68 {fill:#0D1516}
    .fil18 {fill:#130A06}
    .fil66 {fill:#193439}
    .fil9 {fill:#1E1108}
    .fil5 {fill:#1E383D}
    .fil25 {fill:#1E383D}
    .fil3 {fill:#23140A}
    .fil8 {fill:#29170B}
    .fil6 {fill:#2B5158}
    .fil7 {fill:#326169}
    .fil21 {fill:#336068}
    .fil24 {fill:#396C75}
    .fil0 {fill:#3B2110}
    .fil26 {fill:#3B3125}
    .fil29 {fill:#3B3329}
    .fil20 {fill:#407983}
    .fil15 {fill:#43241A}
    .fil22 {fill:#478590}
    .fil45 {fill:#4D4D4D}
    .fil2 {fill:#50301D}
    .fil19 {fill:#508A94}
    .fil28 {fill:#564D42}
    .fil30 {fill:#564F48}
    .fil23 {fill:#5796A1}
    .fil13 {fill:#5A3124}
    .fil42 {fill:#666666}
    .fil1 {fill:#6C432D}
    .fil14 {fill:#74402D}
    .fil44 {fill:gray}
    .fil11 {fill:#8E4E35}
    .fil17 {fill:#A05B42}
    .fil46 {fill:#B3B3B3}
    .fil40 {fill:#C4A141}
    .fil39 {fill:#C4A141}
    .fil58 {fill:#D5EAFF}
    .fil32 {fill:#EFD484}
    .fil31 {fill:#F2E4BA}
    .fil33 {fill:#F2EAD2}
    .fil35 {fill:#FCE18B}
    .fil38 {fill:#FCE18B}
    .fil53 {fill:#FFE27D}
    .fil50 {fill:#FFE697}
    .fil34 {fill:#FFF2C4}
    .fil49 {fill:#FFF2CB}
    .fil36 {fill:#FFF7DD}
    .fil37 {fill:#FFFBEF}
    .fil52 {fill:white}
    .fil57 {fill:white}
    .fil48 {fill:black;fill-rule:nonzero}
    .fil12 {fill:#43241A;fill-rule:nonzero}
    .fil51 {fill:#FFD83F;fill-rule:nonzero}
    .fil55 {fill:white;fill-opacity:0.050980}
    .fil4 {fill:black;fill-opacity:0.200000}
    .fil61 {fill:url(#id1)}
    .fil65 {fill:url(#id2)}
    .fil64 {fill:url(#id3)}
    .fil62 {fill:url(#id4)}
    .fil60 {fill:url(#id5)}
    .fil63 {fill:url(#id6)}
    .fil43 {fill:url(#id7)}
    .fil67 {fill:url(#id8)}
    .fil54 {fill:url(#id9)}
    .fil59 {fill:url(#id10)}
    .fil47 {fill:url(#id11)}
    .fil56 {fill:url(#id12)}
   ]]>
  </style>
    <clipPath
   id="id0">
     <path
   d="m 7442,793 h 613 v 613 h -613 z"
   id="path4"
   inkscape:connector-curvature="0" />
    </clipPath>
  <linearGradient
   id="id1"
   gradientUnits="userSpaceOnUse"
   x1="7510.4102"
   y1="10062.9"
   x2="7512.5698"
   y2="10339">
   <stop
   offset="0"
   style="stop-opacity:1; stop-color:#ABD7FF"
   id="stop7" />
   <stop
   offset="1"
   style="stop-opacity:1; stop-color:#D5EAFF"
   id="stop9" />
  </linearGradient>
  <linearGradient
   id="id2"
   gradientUnits="userSpaceOnUse"
   xlink:href="#id1"
   x1="6849.6602"
   y1="9078.2803"
   x2="6851.3501"
   y2="9295.1904">
  </linearGradient>
  <linearGradient
   id="id3"
   gradientUnits="userSpaceOnUse"
   xlink:href="#id1"
   x1="6525.9502"
   y1="10380.6"
   x2="6527.0298"
   y2="10518.7">
  </linearGradient>
  <linearGradient
   id="id4"
   gradientUnits="userSpaceOnUse"
   xlink:href="#id1"
   x1="8083.1499"
   y1="8603.5498"
   x2="8084.3101"
   y2="8751.4404">
  </linearGradient>
  <linearGradient
   id="id5"
   gradientUnits="userSpaceOnUse"
   xlink:href="#id1"
   x1="8293.2695"
   y1="11186.3"
   x2="8299.1504"
   y2="11935.7">
  </linearGradient>
  <linearGradient
   id="id6"
   gradientUnits="userSpaceOnUse"
   xlink:href="#id1"
   x1="9519.0703"
   y1="10686.6"
   x2="9520.46"
   y2="10864">
  </linearGradient>
  <linearGradient
   id="id7"
   gradientUnits="userSpaceOnUse"
   x1="8817.7002"
   y1="4060.9399"
   x2="8779.0098"
   y2="3628.3899">
   <stop
   offset="0"
   style="stop-opacity:1; stop-color:#666666"
   id="stop17" />
   <stop
   offset="1"
   style="stop-opacity:1; stop-color:#999999"
   id="stop19" />
  </linearGradient>
  <linearGradient
   id="id8"
   gradientUnits="userSpaceOnUse"
   x1="9562.2803"
   y1="12575"
   x2="9562.29"
   y2="15291.7"
   gradientTransform="matrix(4.1312106,0,0,4.1312106,-2446.7951,-81088.882)">
   <stop
   offset="0"
   style="stop-opacity:1; stop-color:#162A2D"
   id="stop22" />
   <stop
   offset="1"
   style="stop-opacity:1; stop-color:#0D1516"
   id="stop24" />
  </linearGradient>
  <linearGradient
   id="id9"
   gradientUnits="userSpaceOnUse"
   x1="9357.2305"
   y1="6192.1001"
   x2="9357.2305"
   y2="13608.9">
   <stop
   offset="0"
   style="stop-opacity:1; stop-color:#1A1A1A"
   id="stop27" />
   <stop
   offset="1"
   style="stop-opacity:1; stop-color:#1B393E"
   id="stop29" />
  </linearGradient>
  <linearGradient
   id="id10"
   gradientUnits="userSpaceOnUse"
   xlink:href="#id1"
   x1="9692.5898"
   y1="9053.4297"
   x2="9695.8604"
   y2="9470.8096">
  </linearGradient>
  <linearGradient
   id="id11"
   gradientUnits="userSpaceOnUse"
   xlink:href="#id7"
   x1="9576.0303"
   y1="4060.9299"
   x2="9664.3799"
   y2="3477.49">
  </linearGradient>
  <radialGradient
   id="id12"
   gradientUnits="userSpaceOnUse"
   gradientTransform="matrix(1.51755,1.07187,-1.07185,1.51739,6004,-12875)"
   cx="7548.3701"
   cy="9246.1104"
   r="1563.34"
   fx="7548.3701"
   fy="9246.1104">
   <stop
   offset="0"
   style="stop-opacity:1; stop-color:#F1F8FF"
   id="stop34" />
   <stop
   offset="1"
   style="stop-opacity:1; stop-color:#D5EAFF"
   id="stop36" />
  </radialGradient>
 <linearGradient
   inkscape:collect="always"
   xlink:href="#id1"
   id="linearGradient6427"
   gradientUnits="userSpaceOnUse"
   x1="7510.4102"
   y1="10062.9"
   x2="7512.5698"
   y2="10339" />
  
  
  
  
  
  
  
  
  
  
  
  
  
  
  
  
  
  
  
  
  
  
  
  
  
  
  
  
  
  
  
  
 
   
   
   
   
   
  <linearGradient
   inkscape:collect="always"
   xlink:href="#id9"
   id="linearGradient7538"
   gradientUnits="userSpaceOnUse"
   x1="9357.2305"
   y1="6192.1001"
   x2="9357.2305"
   y2="13608.9" /><radialGradient
   inkscape:collect="always"
   xlink:href="#id12"
   id="radialGradient7540"
   gradientUnits="userSpaceOnUse"
   gradientTransform="matrix(1.51755,1.07187,-1.07185,1.51739,6004,-12875)"
   cx="7548.3701"
   cy="9246.1104"
   fx="7548.3701"
   fy="9246.1104"
   r="1563.34" /><linearGradient
   inkscape:collect="always"
   xlink:href="#id1"
   id="linearGradient7542"
   gradientUnits="userSpaceOnUse"
   x1="9692.5898"
   y1="9053.4297"
   x2="9695.8604"
   y2="9470.8096" /><linearGradient
   inkscape:collect="always"
   xlink:href="#id1"
   id="linearGradient7544"
   gradientUnits="userSpaceOnUse"
   x1="8293.2695"
   y1="11186.3"
   x2="8299.1504"
   y2="11935.7" /><linearGradient
   inkscape:collect="always"
   xlink:href="#id1"
   id="linearGradient7546"
   gradientUnits="userSpaceOnUse"
   x1="7510.4102"
   y1="10062.9"
   x2="7512.5698"
   y2="10339" /><linearGradient
   inkscape:collect="always"
   xlink:href="#id1"
   id="linearGradient7548"
   gradientUnits="userSpaceOnUse"
   x1="8083.1499"
   y1="8603.5498"
   x2="8084.3101"
   y2="8751.4404" /><linearGradient
   inkscape:collect="always"
   xlink:href="#id1"
   id="linearGradient7550"
   gradientUnits="userSpaceOnUse"
   x1="9519.0703"
   y1="10686.6"
   x2="9520.46"
   y2="10864" /><linearGradient
   inkscape:collect="always"
   xlink:href="#id1"
   id="linearGradient7552"
   gradientUnits="userSpaceOnUse"
   x1="6525.9502"
   y1="10380.6"
   x2="6527.0298"
   y2="10518.7" /><linearGradient
   inkscape:collect="always"
   xlink:href="#id1"
   id="linearGradient7554"
   gradientUnits="userSpaceOnUse"
   x1="6849.6602"
   y1="9078.2803"
   x2="6851.3501"
   y2="9295.1904" /><linearGradient
   inkscape:collect="always"
   xlink:href="#id8"
   id="linearGradient7556"
   gradientUnits="userSpaceOnUse"
   gradientTransform="matrix(4.0817017,0,0,4.1312106,-2415.8521,-28741.052)"
   x1="9562.2803"
   y1="12575"
   x2="9562.29"
   y2="15291.7" /></defs>
 <polygon
   class="fil54"
   points="625,15599 625,6930 15797,6930 15797,15599 "
   id="polygon1894"
   style="fill:url(#id9)"
   transform="matrix(4.1312104,0,0,4.1312104,-2446.7949,-81088.881)" /><g
   id="_1255857792"
   transform="matrix(4.1312104,0,0,4.1312104,-2446.7949,-81088.881)">
    <path
   class="fil55"
   d="m 8211,7180 c 2477,0 4485,1367 4485,3053 0,1687 -2008,3054 -4485,3054 -2477,0 -4485,-1367 -4485,-3054 0,-1686 2008,-3053 4485,-3053 z"
   id="path1896"
   inkscape:connector-curvature="0"
   style="fill:#ffffff;fill-opacity:0.05097997" />
    <path
   class="fil55"
   d="m 8211,7457 c 2023,0 3662,1243 3662,2776 0,1534 -1639,2777 -3662,2777 -2022,0 -3661,-1243 -3661,-2777 0,-1533 1639,-2776 3661,-2776 z"
   id="path1898"
   inkscape:connector-curvature="0"
   style="fill:#ffffff;fill-opacity:0.05097997" />
    <path
   class="fil55"
   d="m 8211,7746 c 1650,0 2987,1114 2987,2487 0,1374 -1337,2488 -2987,2488 -1649,0 -2986,-1114 -2986,-2488 0,-1373 1337,-2487 2986,-2487 z"
   id="path1900"
   inkscape:connector-curvature="0"
   style="fill:#ffffff;fill-opacity:0.05097997" />
    <path
   class="fil56"
   d="m 8183,7933 c 1251,0 2265,1014 2265,2264 0,1251 -1014,2265 -2265,2265 -1251,0 -2265,-1014 -2265,-2265 0,-1250 1014,-2264 2265,-2264 z"
   id="path1902"
   style="fill:url(#id12)"
   inkscape:connector-curvature="0" />
    <path
   class="fil57"
   d="m 7520,9997 c 109,0 198,89 198,199 0,109 -89,198 -198,198 -110,0 -199,-89 -199,-198 0,-110 89,-199 199,-199 z"
   id="path1904"
   inkscape:connector-curvature="0"
   style="fill:#ffffff" />
    <path
   class="fil58"
   d="m 9549,10176 c -259,967 -1141,1679 -2189,1679 -319,0 -622,-66 -898,-185 416,485 1032,792 1721,792 1191,0 2168,-920 2258,-2089 4,-58 7,-117 7,-176 0,-248 -41,-488 -115,-712 -201,-607 -651,-1100 -1230,-1358 -7,-2 -14,-4 -20,-7 284,333 474,749 527,1206 10,87 15,175 15,265 0,202 -26,399 -76,585 z"
   id="path1906"
   inkscape:connector-curvature="0"
   style="fill:#d5eaff" />
    <path
   class="fil57"
   d="m 9698,8963 c 157,0 285,128 285,285 0,158 -128,286 -285,286 -158,0 -286,-128 -286,-286 0,-157 128,-285 286,-285 z"
   id="path1908"
   inkscape:connector-curvature="0"
   style="fill:#ffffff" />
    <path
   class="fil57"
   d="m 8089,8577 c 56,0 101,46 101,101 0,56 -45,101 -101,101 -56,0 -101,-45 -101,-101 0,-55 45,-101 101,-101 z"
   id="path1910"
   inkscape:connector-curvature="0"
   style="fill:#ffffff" />
    <path
   class="fil57"
   d="m 9525,10653 c 67,0 121,55 121,122 0,67 -54,121 -121,121 -67,0 -122,-54 -122,-121 0,-67 55,-122 122,-122 z"
   id="path1912"
   inkscape:connector-curvature="0"
   style="fill:#ffffff" />
    <path
   class="fil57"
   d="m 6532,10357 c 52,0 94,42 94,94 0,52 -42,94 -94,94 -53,0 -95,-42 -95,-94 0,-52 42,-94 95,-94 z"
   id="path1914"
   inkscape:connector-curvature="0"
   style="fill:#ffffff" />
    <path
   class="fil57"
   d="m 6855,9036 c 82,0 148,66 148,148 0,82 -66,148 -148,148 -82,0 -148,-66 -148,-148 0,-82 66,-148 148,-148 z"
   id="path1916"
   inkscape:connector-curvature="0"
   style="fill:#ffffff" />
    <path
   class="fil57"
   d="m 8299,11008 c 287,0 520,238 520,532 0,293 -233,531 -520,531 -287,0 -519,-238 -519,-531 0,-294 232,-532 519,-532 z"
   id="path1918"
   inkscape:connector-curvature="0"
   style="fill:#ffffff" />
    <path
   class="fil59"
   d="m 9692,8954 c 157,0 285,128 285,286 0,157 -128,285 -285,285 -158,0 -286,-128 -286,-285 0,-158 128,-286 286,-286 z"
   id="path1920"
   style="fill:url(#id10)"
   inkscape:connector-curvature="0" />
    <path
   class="fil60"
   d="m 8292,11008 c 283,0 512,230 512,513 0,283 -229,512 -512,512 -283,0 -512,-229 -512,-512 0,-283 229,-513 512,-513 z"
   id="path1922"
   style="fill:url(#id5)"
   inkscape:connector-curvature="0" />
    <path
   class="fil61"
   d="m 7510,9997 c 104,0 189,85 189,189 0,104 -85,189 -189,189 -104,0 -189,-85 -189,-189 0,-104 85,-189 189,-189 z"
   id="path1924"
   style="fill:url(#linearGradient6427)"
   inkscape:connector-curvature="0" />
    <path
   class="fil62"
   d="m 8083,8568 c 56,0 101,46 101,102 0,55 -45,101 -101,101 -56,0 -101,-46 -101,-101 0,-56 45,-102 101,-102 z"
   id="path1926"
   style="fill:url(#id4)"
   inkscape:connector-curvature="0" />
    <path
   class="fil63"
   d="m 9519,10644 c 67,0 121,55 121,122 0,67 -54,121 -121,121 -67,0 -122,-54 -122,-121 0,-67 55,-122 122,-122 z"
   id="path1928"
   style="fill:url(#id6)"
   inkscape:connector-curvature="0" />
    <path
   class="fil64"
   d="m 6526,10348 c 52,0 94,42 94,94 0,52 -42,95 -94,95 -52,0 -95,-43 -95,-95 0,-52 43,-94 95,-94 z"
   id="path1930"
   style="fill:url(#id3)"
   inkscape:connector-curvature="0" />
    <path
   class="fil65"
   d="m 6849,9027 c 82,0 149,66 149,148 0,82 -67,148 -149,148 -82,0 -148,-66 -148,-148 0,-82 66,-148 148,-148 z"
   id="path1932"
   style="fill:url(#id2)"
   inkscape:connector-curvature="0" />
   </g><path
   class="fil66"
   d="m 61719.166,-33142.053 -128.068,-37.18 c -20.656,78.493 -28.918,99.149 -49.575,185.905 -70.23,-16.526 -123.936,-33.05 -206.56,-53.706 -20.657,74.362 -20.657,70.229 -37.18,132.198 l 206.56,57.836 -115.674,425.515 c -504.008,16.525 -991.491,37.181 -1462.45,61.969 h -61.968 l 4.132,-132.199 -37.18,-20.656 h 37.18 l 4.131,-252.004 v -103.281 l -24.787,-37.18 24.787,-45.444 v -12.392 c 4.132,-239.611 -190.036,-442.041 -429.646,-446.171 v 0 c -243.741,-4.133 -442.039,190.035 -446.17,433.776 v 70.231 l -4.131,123.937 -4.132,408.989 -90.887,-4.131 v 78.493 c -685.78,45.444 -1338.512,103.28 -1958.194,165.248 l -119.804,-446.171 280.922,-74.362 c -24.787,-86.755 -24.787,-82.624 -49.574,-185.905 -115.675,33.051 -185.905,49.576 -280.923,74.363 -33.049,-119.805 -37.18,-144.592 -66.099,-252.003 l -181.773,49.573 70.23,252.004 -235.479,61.968 v 12.394 l -28.919,24.788 41.313,156.986 272.66,-74.362 111.542,417.252 c -1697.926,173.512 -3176.9,396.596 -4564.988,632.075 l -4.13,-61.968 -8.262,-4.13 -20.656,-41.313 -86.756,8.262 -12.394,-103.28 -28.918,-12.394 28.918,-4.131 -20.656,-198.298 -8.262,-78.493 -24.788,-28.919 16.526,-37.18 v -12.394 c -20.657,-185.904 -190.036,-326.366 -380.072,-305.71 v 0 c -190.036,20.656 -330.496,190.036 -309.841,380.072 l 8.263,53.705 8.262,99.15 33.049,322.234 -70.229,4.131 20.655,169.38 c -904.735,156.987 -1780.551,318.103 -2660.499,470.958 -404.859,66.099 -797.323,123.936 -1177.395,173.51 l 53.705,-561.844 289.185,28.919 c 8.263,-86.756 8.263,-86.756 16.525,-190.036 -119.806,-8.263 -190.036,-16.525 -289.184,-24.787 12.393,-128.068 16.524,-152.855 24.786,-264.398 l -181.773,-16.525 -24.787,260.267 -243.742,-20.656 -4.131,8.261 -37.18,16.525 -12.395,161.118 276.792,24.787 -53.705,599.025 c -1148.477,132.199 -2189.543,165.248 -3168.639,128.068 l 4.131,-95.018 -12.393,-8.262 -16.526,-57.836 h -111.542 v -132.2 l -33.05,-20.656 h 37.182 v -256.135 l 4.13,-99.149 -24.787,-37.181 24.787,-45.443 v -12.393 c 4.131,-239.611 -190.035,-442.04 -429.645,-446.171 v 0 c -243.743,-4.131 -442.04,190.035 -446.171,433.776 l -4.132,70.231 v 123.936 l -4.131,408.99 -90.886,-4.131 v 111.542 c -599.026,-53.706 -1173.265,-132.198 -1739.24,-223.084 l 16.525,-128.068 -8.263,-4.131 -12.393,-45.444 -86.756,-12.393 12.395,-103.281 -24.788,-16.524 h 28.918 l 20.656,-198.298 8.263,-78.493 -16.526,-33.05 24.788,-33.05 v -8.262 c 20.656,-190.037 -115.674,-363.547 -305.709,-384.203 v 0 c -190.036,-20.656 -359.416,115.674 -380.072,305.711 l -8.262,53.704 -12.394,99.15 -33.05,318.103 -70.231,-8.263 -16.523,123.937 c -1049.328,-198.298 -2082.131,-437.909 -3176.902,-665.125 l -86.755,-499.876 285.054,-49.575 c -16.526,-86.756 -12.394,-82.624 -33.05,-185.905 -115.675,20.656 -190.036,33.05 -285.054,49.576 -20.656,-123.937 -24.787,-148.725 -45.443,-260.267 l -181.774,33.05 45.444,260.265 -239.61,41.312 -4.131,8.264 -28.919,24.786 28.919,161.118 276.791,-49.575 70.23,425.514 c -871.685,-181.773 -1784.683,-351.152 -2772.042,-491.614 l 8.262,-90.886 -8.262,-8.262 -8.263,-45.443 -86.754,-8.262 12.393,-107.413 -28.919,-16.524 h 28.919 l 24.787,-198.299 8.262,-78.493 -20.656,-33.049 24.787,-33.05 4.133,-8.262 c 20.655,-190.036 -115.675,-359.415 -305.711,-384.203 v 0 c -190.035,-20.656 -363.547,115.674 -384.203,305.709 l -4.13,57.838 -12.394,95.017 -37.181,322.235 -70.231,-8.263 -12.393,128.068 c -615.551,-70.231 -1260.019,-123.936 -1941.669,-156.986 -437.908,4.13 -867.554,12.394 -1284.807,24.787 l 107.413,-388.334 198.298,53.706 28.918,-111.542 -20.656,-20.656 v -8.263 l -173.511,-45.443 49.575,-185.905 -128.068,-37.18 c -24.787,78.493 -28.918,99.149 -49.575,185.905 -70.23,-16.526 -123.936,-33.05 -206.56,-53.706 -20.657,74.362 -20.657,70.229 -37.18,132.198 l 206.559,57.836 -115.673,425.515 c -504.008,16.525 -991.491,37.181 -1462.448,61.969 h -61.969 l 4.131,-132.199 -37.18,-20.656 h 37.18 l 4.132,-252.004 v -103.281 l -24.787,-37.18 24.787,-45.444 v -12.392 c 4.132,-239.611 -190.037,-442.041 -429.646,-446.171 v 0 c -243.742,-4.133 -442.04,190.035 -446.171,433.776 v 70.231 l -4.131,123.937 -4.131,408.989 -90.888,-4.131 v 78.493 c -685.78,45.444 -1338.511,103.28 -1958.192,165.248 l -119.806,-446.171 280.923,-74.362 c -24.788,-86.755 -24.788,-82.624 -49.575,-185.905 -115.674,33.051 -185.905,49.576 -280.922,74.363 -33.05,-119.805 -37.181,-144.592 -66.099,-252.003 l -181.773,49.573 70.229,252.004 -235.478,61.968 v 12.394 l -28.92,24.788 41.313,156.986 272.66,-74.362 107.412,417.252 c -1693.796,173.512 -3172.77,396.596 -4560.857,632.075 l -4.131,-61.968 -8.262,-4.13 -20.656,-41.313 -86.756,8.262 -12.394,-103.28 -28.918,-12.394 28.918,-4.131 -20.655,-198.298 -8.263,-78.493 -24.787,-28.919 16.525,-37.18 v -12.394 c -20.656,-185.904 -194.167,-326.366 -380.072,-305.71 v 0 c -190.036,20.656 -330.496,190.036 -309.84,380.072 l 4.132,53.705 12.392,99.15 33.051,322.234 -70.231,4.131 16.524,169.38 c -900.603,156.987 -1776.42,318.103 -2656.368,470.958 -404.858,66.099 -797.323,123.936 -1177.395,173.51 l 53.706,-561.844 289.185,28.919 c 8.263,-86.756 8.263,-86.756 16.525,-190.036 -119.806,-8.263 -190.036,-16.525 -289.185,-24.787 12.393,-128.068 16.525,-152.855 24.787,-264.398 l -185.904,-16.525 -24.788,260.267 -239.61,-20.656 -4.131,8.261 -37.181,16.525 -12.394,161.118 276.792,24.787 -57.838,599.025 c -1144.345,132.199 -2185.41,165.248 -3164.507,128.068 l 4.133,-95.018 -12.395,-8.262 -16.525,-57.836 h -111.543 v -132.2 l -33.05,-20.656 h 33.05 l 4.132,-256.135 4.131,-99.149 -24.787,-37.181 24.787,-45.443 v -12.393 c 4.131,-239.611 -190.036,-442.04 -429.646,-446.171 v 0 c -243.741,-4.131 -442.04,190.035 -446.171,433.776 l -4.13,70.231 v 123.936 l -8.263,408.99 -86.756,-4.131 -4.131,111.542 c -594.894,-53.706 -1169.132,-132.198 -1735.109,-223.084 l 12.3948,-128.068 -4.1327,-4.131 -12.3927,-45.444 -86.7556,-12.393 12.3938,-103.281 -24.7876,-16.524 h 24.7876 l 24.7866,-198.298 8.2621,-78.493 -16.5243,-33.05 24.7876,-33.05 v -8.262 c 20.6549,-190.037 -115.6748,-363.547 -305.7104,-384.203 v 0 c -190.0346,-20.656 -359.4152,115.674 -384.2028,305.711 l -4.1316,53.704 -12.3928,99.15 -33.0508,318.103 -70.2292,-8.263 -16.5254,123.937 c -1049.3275,-198.298 -2086.2608,-437.909 -3176.9007,-665.125 l -86.7551,-499.876 285.0527,-49.575 c -16.5243,-86.756 -16.5243,-82.624 -33.0495,-185.905 -119.8045,20.656 -190.0354,33.05 -285.0536,49.576 -20.6553,-123.937 -24.7873,-148.725 -45.4426,-260.267 l -181.7734,33.05 45.4426,260.265 -243.7411,41.312 v 8.264 l -28.9183,24.786 28.9183,161.118 276.7915,-49.575 70.23,425.514 c -871.6852,-181.773 -1788.8139,-351.152 -2776.1736,-491.614 l 12.3943,-90.886 -8.2622,-8.262 -8.263,-45.443 -86.7552,-8.262 12.3932,-107.413 -28.9184,-16.524 h 28.9184 l 20.6563,-198.299 12.3941,-78.493 -20.6562,-33.049 24.7873,-33.05 4.131,-8.262 c 20.6563,-190.036 -115.6735,-359.415 -305.7099,-384.203 v 0 c -190.0354,-20.656 -363.5467,115.674 -384.202,305.709 l -8.263,57.838 -8.2622,95.017 -37.1805,322.235 -70.2309,-8.263 -12.3941,128.068 c -615.5498,-70.231 -1260.01905,-123.936 -1941.66879,-156.986 v 15677.943 c 10505.66999,0 20792.38299,0 31339.36299,0 10505.668,0 20792.382,0 31339.363,0 v -12054.872 -3623.071 c -437.909,4.13 -867.555,12.394 -1280.676,24.787 l 103.281,-388.334 198.298,53.706 28.918,-111.542 -20.656,-20.656 v -8.263 l -173.511,-45.443 z"
   id="path1935"
   inkscape:connector-curvature="0"
   style="fill:#193439;stroke-width:4.13121033" /><path
   class="fil67"
   d="m 34519.276,-27754.954 c 1528.548,-260.266 3048.832,-537.058 4602.169,-813.848 l 4.13,-239.611 128.068,4.132 12.394,-590.764 v -181.774 l 4.13,-99.149 c 4.133,-351.152 293.317,-632.075 644.47,-627.943 v 0 c 347.021,8.262 627.944,297.447 623.812,644.468 v 20.657 l -41.312,61.967 41.312,57.838 -4.13,144.593 -4.133,367.677 h -53.705 l 49.575,28.918 v 165.248 c 1288.937,-227.216 2615.056,-446.17 4003.143,-656.862 l 128.067,-479.22 -297.447,-78.493 c 24.788,-90.886 20.656,-90.886 49.574,-194.166 123.937,33.049 198.299,49.573 297.448,78.492 37.181,-128.067 41.311,-152.855 74.362,-268.529 l 190.036,49.574 -74.363,268.529 252.005,66.1 v 12.393 l 28.918,28.919 -45.444,165.249 -285.053,-78.493 -107.412,396.595 c 904.736,-132.198 1838.389,-264.397 2800.961,-388.333 l 4.131,-227.216 h 128.068 l 12.393,-586.632 v -181.774 l 4.132,-103.281 c 4.131,-347.021 293.316,-627.944 644.468,-623.812 v 0 c 347.022,4.131 627.944,297.448 623.813,644.469 v 16.525 l -41.313,66.099 37.182,57.837 v 144.593 l -4.131,363.546 -53.706,4.131 49.576,28.918 v 190.036 l 161.116,4.131 4.132,12.394 c 1363.299,-156.986 2796.829,-301.579 4317.114,-421.383 l -198.297,-739.486 -392.466,103.28 -57.837,-223.086 37.181,-37.181 v -16.524 l 342.89,-90.887 -99.149,-367.678 260.266,-70.23 c 41.313,156.986 49.575,190.034 99.149,367.677 136.33,-37.181 235.479,-61.968 404.86,-107.411 37.18,144.592 37.18,140.461 70.229,264.397 l -404.858,107.412 210.692,789.061 c 1165.001,-90.886 2379.577,-169.38 3656.121,-235.479 v -49.575 l 95.018,4.131 4.131,-425.514 4.132,-132.199 v -74.362 c 4.13,-252.003 214.823,-458.564 466.826,-454.432 v 0 c 252.004,4.13 458.565,214.822 454.433,466.826 v 12.393 l -28.919,49.575 24.788,41.312 v 103.28 l -4.131,264.398 -37.18,4.131 37.18,16.525 -4.132,128.067 c 735.356,-33.05 1487.236,-57.837 2259.772,-78.493 l 239.61,-805.585 -388.332,-115.675 66.098,-223.084 53.706,-12.395 8.262,-12.393 338.76,99.15 107.411,-367.679 256.135,78.494 c -45.443,156.984 -53.705,190.035 -107.411,363.545 136.33,41.312 235.479,70.232 404.86,119.806 -45.444,144.592 -41.313,140.46 -78.494,264.397 l -404.859,-119.805 -210.692,722.962 c 619.682,-16.526 1251.758,-28.918 1900.358,-37.181 v 10832.034 3449.56 c -21089.83,0 -41671.519,0 -62678.72599,0 v -14281.594 c 396.597,20.655 784.93003,41.312 1165.00189,70.23 l 24.7873,-214.823 103.2803,12.395 49.5747,-462.696 16.5242,-144.593 8.2631,-78.493 c 33.0494,-272.66 280.9216,-470.958 553.5821,-442.039 v 0 c 276.7905,33.05 475.089,280.922 442.0396,553.583 v 16.523 l -37.1815,45.444 24.7874,49.575 -12.3932,111.542 -33.0504,289.185 -41.3116,-4.131 41.3116,24.787 -16.5243,152.855 123.9357,12.393 16.5252,70.231 8.2621,8.262 -12.3932,99.15 c 1396.3489,128.067 2710.0736,293.315 3970.0928,483.352 l -61.9678,-355.285 -400.7271,70.231 -37.1815,-227.216 41.3125,-37.182 v -16.524 l 351.1525,-61.968 -66.0988,-371.81 264.3973,-45.443 c 24.7873,156.986 33.0494,194.167 61.9678,371.809 140.4618,-24.787 243.7421,-41.313 417.2524,-70.231 24.7873,148.724 24.7873,144.593 45.4435,272.661 l -413.1213,70.23 74.362,446.171 c 1578.1222,243.741 3061.2281,528.794 4494.7577,826.242 l 12.394,-111.543 103.281,12.393 49.574,-462.695 16.524,-140.461 8.263,-82.624 c 33.049,-272.661 280.922,-470.958 553.583,-442.04 v 0 c 276.79,33.049 475.089,280.923 442.039,557.713 v 12.394 l -37.181,45.443 24.787,49.575 -12.394,111.543 -28.918,289.185 h -41.312 l 37.181,24.787 -16.525,148.723 123.937,16.526 16.524,66.098 8.262,8.264 -16.525,156.985 c 904.736,194.167 1792.946,388.334 2672.894,574.239 l 4.131,-37.182 h 128.068 l 8.262,-586.632 4.131,-181.772 v -103.281 c 4.131,-351.152 297.446,-632.075 644.469,-623.813 v 0 c 351.153,4.131 632.076,293.316 623.812,644.469 v 16.524 l -37.18,61.969 37.18,57.837 -4.131,144.592 -4.131,367.678 -53.706,4.132 53.706,24.787 -4.131,194.166 h 161.117 l 28.918,86.756 12.394,8.262 -4.131,256.135 c 1214.576,247.873 2433.283,470.958 3672.646,656.863 l 70.231,-727.093 -404.859,-41.313 24.787,-231.348 49.575,-20.654 4.131,-16.526 351.152,33.05 37.182,-375.941 268.529,24.788 c -16.526,161.117 -20.656,198.298 -37.181,375.939 140.461,16.526 243.742,24.788 417.252,41.314 -12.394,148.722 -12.394,144.591 -24.787,272.659 l -417.252,-37.18 -70.232,743.617 c 1842.521,264.397 3751.14,437.908 5812.614,454.433 l -8.263,-86.755 99.149,-12.394 -45.443,-462.696 -16.525,-140.46 -8.263,-82.625 c -28.918,-272.66 169.381,-520.532 446.171,-549.451 v 0 c 272.66,-28.918 520.532,173.511 549.452,446.171 l 4.131,12.393 -24.787,53.706 33.049,41.312 12.393,115.674 28.918,285.053 -41.311,8.263 45.444,16.525 16.524,152.855 123.936,-16.525 28.919,66.099 12.394,4.132 16.525,140.46 c 1718.582,-37.18 3552.839,-190.035 5544.083,-483.351 l -115.673,-446.171 -392.465,103.28 -61.968,-223.085 41.312,-41.312 v -12.394 l 342.889,-90.887 -99.147,-367.677 256.134,-70.23 c 45.444,156.985 53.706,190.035 99.15,367.677 136.328,-37.182 239.609,-66.1 404.857,-107.411 41.312,144.592 41.312,140.461 74.362,264.398 l -408.99,107.41 128.067,475.09 c 285.055,-45.443 570.108,-90.886 863.424,-140.461 z"
   id="path1937"
   style="fill:url(#id8);stroke-width:4.13121033"
   inkscape:connector-curvature="0" /><path
   class="fil68"
   d="m 2324.753,-28713.395 264.3974,-70.232 c 41.3125,161.119 49.5746,194.169 99.1493,371.81 136.3297,-37.181 239.61,-61.969 408.9892,-107.411 41.3126,144.592 37.1815,144.592 70.2308,268.529 l -408.9892,107.411 227.216,859.292 c 1012.1469,33.049 1982.9813,74.361 2924.8973,119.805 h 128.0677 l -4.132,-264.398 70.2309,-37.18 -74.362,-4.132 -4.1311,-508.139 -4.131,-198.297 49.5746,-82.625 -53.7057,-86.756 v -24.787 c -8.2621,-483.351 380.0708,-884.079 863.423,-888.21 v 0 c 483.3513,-8.263 884.0794,380.072 892.3414,863.423 l 4.1311,140.461 v 247.873 l 12.3932,813.848 h 181.7733 v 152.856 c 1371.563,95.017 2672.8948,202.429 3916.3888,326.364 l 239.611,-888.21 -561.845,-152.854 c 45.443,-169.38 45.443,-165.249 99.149,-367.678 231.347,61.968 371.809,99.149 561.845,152.855 61.967,-243.742 74.362,-293.317 136.329,-508.139 l 355.284,95.018 -136.329,508.138 475.089,123.937 v 24.787 l 53.706,53.706 -82.626,309.841 -541.187,-144.593 -223.085,830.373 c 3391.723,347.023 6349.669,793.192 9121.712,1264.151 l 12.393,-119.806 16.525,-12.392 41.313,-86.756 173.51,20.655 20.656,-210.692 61.968,-20.655 -57.836,-12.393 41.312,-396.597 16.524,-156.986 49.575,-57.836 -33.05,-74.363 v -16.524 c 41.312,-380.071 384.203,-656.863 760.143,-615.551 v 0 c 380.071,37.181 656.862,380.072 619.682,760.143 l -12.394,111.543 -20.656,194.167 -70.23,640.337 140.46,12.394 -33.049,338.759 c 1809.47,318.104 3556.971,636.207 5316.868,937.785 809.716,140.46 1594.646,252.004 2354.789,347.021 l -107.411,-1115.426 -578.37,53.705 c -16.525,-173.511 -16.525,-173.511 -37.18,-380.071 239.61,-20.656 384.202,-33.05 578.369,-53.706 -20.656,-247.873 -24.787,-297.447 -49.574,-524.664 l 371.809,-33.05 49.574,524.665 483.351,-45.444 8.263,20.656 70.23,28.918 28.918,322.236 -557.713,49.573 115.674,1198.052 c 2292.821,264.397 4374.951,330.497 6329.014,260.266 v -194.166 l 16.525,-16.526 37.182,-115.674 h 223.084 l -4.131,-268.529 70.231,-37.18 -70.231,-4.132 -8.262,-504.007 -4.132,-202.429 53.705,-78.493 -53.705,-86.755 -4.131,-24.788 c -4.131,-483.352 384.203,-884.079 867.554,-892.341 v 0 c 479.222,-8.263 884.079,380.071 888.211,863.422 l 4.131,140.462 4.131,252.003 12.394,813.848 177.642,-4.13 4.131,218.954 c 1189.788,-107.411 2342.396,-260.266 3474.348,-442.04 l -28.919,-252.003 12.394,-12.394 20.656,-95.018 173.51,-20.656 -20.656,-206.561 49.576,-37.18 -53.706,4.13 -45.443,-396.595 -16.525,-156.986 33.05,-66.1 -49.576,-66.099 -4.13,-20.656 c -41.312,-375.94 235.478,-722.961 611.419,-764.274 v 0 c 380.071,-41.312 722.961,231.347 768.405,611.419 l 12.393,111.543 20.657,194.167 74.362,640.337 136.329,-16.524 28.919,243.741 c 2098.654,-396.597 4172.522,-875.816 6357.932,-1334.382 l 173.511,-995.621 -570.106,-95.017 c 28.918,-177.643 28.918,-173.511 61.968,-375.941 239.61,41.312 380.07,66.1 574.238,99.149 41.311,-247.872 49.574,-297.446 90.886,-520.533 l 363.546,66.101 -90.886,516.4 483.352,82.625 v 24.787 l 61.968,45.443 -57.837,318.103 -549.451,-95.018 -148.724,851.03 c 1747.502,-363.547 3577.629,-706.438 5552.347,-983.228 l -20.656,-185.904 12.394,-12.395 20.656,-90.886 173.511,-20.656 -20.656,-210.691 49.575,-33.05 -53.706,4.131 -45.444,-400.728 -16.525,-156.986 33.051,-66.099 -49.575,-61.968 -4.131,-20.656 c -41.312,-380.071 235.479,-722.962 611.418,-764.274 v 0 c 380.072,-45.444 722.961,231.349 768.405,607.288 l 12.395,111.542 20.655,198.299 70.231,636.206 140.46,-16.525 28.92,264.397 c 1231.1,-140.46 2515.907,-252.003 3879.207,-322.233 v 10703.965 c -21007.207,0 -41584.764,0 -62678.72599,0 v -3449.56 -7254.405 c 884.07919,12.393 1739.24029,33.048 2569.61289,57.836 l -206.5597,-780.798 -400.7281,107.411 -57.8368,-227.217 37.1805,-41.312 4.1321,-16.524 342.8903,-90.887 z"
   id="path1939"
   inkscape:connector-curvature="0"
   style="fill:#0d1516;stroke-width:4.13121033" />
<g
   id="g7579"
   inkscape:export-filename="C:\4.0 MyProjects\LearnAll\2.0 Runner\Sprites\TiledMapsDark\BC\BC_4.png"
   inkscape:export-xdpi="96"
   inkscape:export-ydpi="96"><polygon
     class="fil54"
     points="15797,15599 625,15599 625,6930 15797,6930 "
     id="polygon7490"
     style="fill:url(#linearGradient7538)"
     transform="matrix(3.0134458,0,0,4.1312104,-1748.192,-28741.051)" /><g
     id="g7530"
     transform="matrix(4.1312104,0,0,4.1312104,-11256.566,-28741.051)">
    <path
   class="fil55"
   d="m 8211,7180 c 2477,0 4485,1367 4485,3053 0,1687 -2008,3054 -4485,3054 -2477,0 -4485,-1367 -4485,-3054 0,-1686 2008,-3053 4485,-3053 z"
   id="path7492"
   inkscape:connector-curvature="0"
   style="fill:#ffffff;fill-opacity:0.05097997" />
    <path
   class="fil55"
   d="m 8211,7457 c 2023,0 3662,1243 3662,2776 0,1534 -1639,2777 -3662,2777 -2022,0 -3661,-1243 -3661,-2777 0,-1533 1639,-2776 3661,-2776 z"
   id="path7494"
   inkscape:connector-curvature="0"
   style="fill:#ffffff;fill-opacity:0.05097997" />
    <path
   class="fil55"
   d="m 8211,7746 c 1650,0 2987,1114 2987,2487 0,1374 -1337,2488 -2987,2488 -1649,0 -2986,-1114 -2986,-2488 0,-1373 1337,-2487 2986,-2487 z"
   id="path7496"
   inkscape:connector-curvature="0"
   style="fill:#ffffff;fill-opacity:0.05097997" />
    <path
   class="fil56"
   d="m 8183,7933 c 1251,0 2265,1014 2265,2264 0,1251 -1014,2265 -2265,2265 -1251,0 -2265,-1014 -2265,-2265 0,-1250 1014,-2264 2265,-2264 z"
   id="path7498"
   style="fill:url(#radialGradient7540)"
   inkscape:connector-curvature="0" />
    <path
   class="fil57"
   d="m 7520,9997 c 109,0 198,89 198,199 0,109 -89,198 -198,198 -110,0 -199,-89 -199,-198 0,-110 89,-199 199,-199 z"
   id="path7500"
   inkscape:connector-curvature="0"
   style="fill:#ffffff" />
    <path
   class="fil58"
   d="m 9549,10176 c -259,967 -1141,1679 -2189,1679 -319,0 -622,-66 -898,-185 416,485 1032,792 1721,792 1191,0 2168,-920 2258,-2089 4,-58 7,-117 7,-176 0,-248 -41,-488 -115,-712 -201,-607 -651,-1100 -1230,-1358 -7,-2 -14,-4 -20,-7 284,333 474,749 527,1206 10,87 15,175 15,265 0,202 -26,399 -76,585 z"
   id="path7502"
   inkscape:connector-curvature="0"
   style="fill:#d5eaff" />
    <path
   class="fil57"
   d="m 9698,8963 c 157,0 285,128 285,285 0,158 -128,286 -285,286 -158,0 -286,-128 -286,-286 0,-157 128,-285 286,-285 z"
   id="path7504"
   inkscape:connector-curvature="0"
   style="fill:#ffffff" />
    <path
   class="fil57"
   d="m 8089,8577 c 56,0 101,46 101,101 0,56 -45,101 -101,101 -56,0 -101,-45 -101,-101 0,-55 45,-101 101,-101 z"
   id="path7506"
   inkscape:connector-curvature="0"
   style="fill:#ffffff" />
    <path
   class="fil57"
   d="m 9525,10653 c 67,0 121,55 121,122 0,67 -54,121 -121,121 -67,0 -122,-54 -122,-121 0,-67 55,-122 122,-122 z"
   id="path7508"
   inkscape:connector-curvature="0"
   style="fill:#ffffff" />
    <path
   class="fil57"
   d="m 6532,10357 c 52,0 94,42 94,94 0,52 -42,94 -94,94 -53,0 -95,-42 -95,-94 0,-52 42,-94 95,-94 z"
   id="path7510"
   inkscape:connector-curvature="0"
   style="fill:#ffffff" />
    <path
   class="fil57"
   d="m 6855,9036 c 82,0 148,66 148,148 0,82 -66,148 -148,148 -82,0 -148,-66 -148,-148 0,-82 66,-148 148,-148 z"
   id="path7512"
   inkscape:connector-curvature="0"
   style="fill:#ffffff" />
    <path
   class="fil57"
   d="m 8299,11008 c 287,0 520,238 520,532 0,293 -233,531 -520,531 -287,0 -519,-238 -519,-531 0,-294 232,-532 519,-532 z"
   id="path7514"
   inkscape:connector-curvature="0"
   style="fill:#ffffff" />
    <path
   class="fil59"
   d="m 9692,8954 c 157,0 285,128 285,286 0,157 -128,285 -285,285 -158,0 -286,-128 -286,-285 0,-158 128,-286 286,-286 z"
   id="path7516"
   style="fill:url(#linearGradient7542)"
   inkscape:connector-curvature="0" />
    <path
   class="fil60"
   d="m 8292,11008 c 283,0 512,230 512,513 0,283 -229,512 -512,512 -283,0 -512,-229 -512,-512 0,-283 229,-513 512,-513 z"
   id="path7518"
   style="fill:url(#linearGradient7544)"
   inkscape:connector-curvature="0" />
    <path
   class="fil61"
   d="m 7510,9997 c 104,0 189,85 189,189 0,104 -85,189 -189,189 -104,0 -189,-85 -189,-189 0,-104 85,-189 189,-189 z"
   id="path7520"
   style="fill:url(#linearGradient7546)"
   inkscape:connector-curvature="0" />
    <path
   class="fil62"
   d="m 8083,8568 c 56,0 101,46 101,102 0,55 -45,101 -101,101 -56,0 -101,-46 -101,-101 0,-56 45,-102 101,-102 z"
   id="path7522"
   style="fill:url(#linearGradient7548)"
   inkscape:connector-curvature="0" />
    <path
   class="fil63"
   d="m 9519,10644 c 67,0 121,55 121,122 0,67 -54,121 -121,121 -67,0 -122,-54 -122,-121 0,-67 55,-122 122,-122 z"
   id="path7524"
   style="fill:url(#linearGradient7550)"
   inkscape:connector-curvature="0" />
    <path
   class="fil64"
   d="m 6526,10348 c 52,0 94,42 94,94 0,52 -42,95 -94,95 -52,0 -95,-43 -95,-95 0,-52 43,-94 95,-94 z"
   id="path7526"
   style="fill:url(#linearGradient7552)"
   inkscape:connector-curvature="0" />
    <path
   class="fil65"
   d="m 6849,9027 c 82,0 149,66 149,148 0,82 -67,148 -149,148 -82,0 -148,-66 -148,-148 0,-82 66,-148 148,-148 z"
   id="path7528"
   style="fill:url(#linearGradient7554)"
   inkscape:connector-curvature="0" />
   </g></g><path
   style="fill:#193439;stroke-width:4.13006353"
   inkscape:connector-curvature="0"
   id="path7532"
   d="m 44761.047,19205.777 -127.997,-37.18 c -20.644,78.493 -28.902,99.149 -49.547,185.905 -70.191,-16.526 -123.867,-33.05 -206.446,-53.706 -20.645,74.362 -20.645,70.229 -37.159,132.198 l 206.445,57.836 -115.609,425.515 c -503.729,16.525 -990.941,37.181 -1461.639,61.969 h -61.933 l 4.13,-132.199 -37.16,-20.656 h 37.16 l 4.128,-252.004 v -103.281 l -24.773,-37.18 24.773,-45.444 v -12.392 c 4.13,-239.611 -189.93,-442.041 -429.407,-446.171 v 0 c -243.606,-4.133 -441.794,190.035 -445.923,433.776 v 70.231 l -4.128,123.937 -4.13,408.989 -90.836,-4.131 v 78.493 c -685.4,45.444 -1337.769,103.28 -1957.107,165.248 l -119.738,-446.171 280.766,-74.362 c -24.773,-86.755 -24.773,-82.624 -49.546,-185.905 -115.611,33.051 -185.802,49.576 -280.767,74.363 -33.031,-119.805 -37.16,-144.592 -66.063,-252.003 l -181.672,49.573 70.191,252.004 -235.348,61.968 v 12.394 l -28.903,24.788 41.29,156.986 272.509,-74.362 111.48,417.252 c -1696.984,173.512 -1588.518,396.596 -2975.835,632.075 l -4.128,-61.968 -8.258,-4.13 -20.644,-41.313 -86.708,8.262 -12.387,-103.28 -28.902,-12.394 28.902,-4.131 -20.645,-198.298 -8.257,-78.493 -24.774,-28.919 16.517,-37.18 v -12.394 c -20.646,-185.904 -189.931,-326.366 -379.861,-305.71 v 0 c -189.931,20.656 -330.313,190.036 -309.669,380.072 l 8.258,53.705 8.257,99.15 33.031,322.234 -70.19,4.131 20.644,169.38 c -1340.845,245.341 -836.581,197.477 -3486.335,793.192 l 4.129,-95.018 -12.387,-8.262 -16.516,-57.836 h -111.48 v -132.2 l -33.032,-20.656 h 37.161 v -256.135 l 4.128,-99.149 -24.773,-37.181 24.773,-45.443 v -12.393 c 4.129,-239.611 -189.93,-442.04 -429.407,-446.171 v 0 c -243.607,-4.131 -441.794,190.035 -445.923,433.776 l -4.13,70.231 v 123.936 l -4.128,408.99 -90.836,-4.131 v 111.542 c -598.693,-53.706 -643.74,-132.198 -1209.401,-223.084 l 16.516,-128.068 -8.259,-4.131 -12.386,-45.444 -86.708,-12.393 12.388,-103.281 -24.774,-16.524 h 28.902 l 20.645,-198.298 8.258,-78.493 -16.517,-33.05 24.775,-33.05 v -8.262 c 20.644,-190.037 -115.61,-363.547 -305.54,-384.203 v 0 c -189.93,-20.656 -359.216,115.674 -379.861,305.711 l -8.257,53.704 -12.387,99.15 -33.032,318.103 -70.192,-8.263 -16.514,123.937 c -1048.745,-198.298 -494.356,-437.909 -1588.52,-665.125 l -86.706,-499.876 284.895,-49.575 c -16.516,-86.756 -12.387,-82.624 -33.031,-185.905 -115.611,20.656 -189.931,33.05 -284.896,49.576 -20.645,-123.937 -24.773,-148.725 -45.418,-260.267 l -181.673,33.05 45.419,260.265 -239.477,41.312 -4.129,8.264 -28.903,24.786 28.903,161.118 276.638,-49.575 70.191,425.514 c -871.202,-181.773 -725.947,-351.152 -1712.758,-491.614 l 8.257,-90.886 -8.257,-8.262 -8.259,-45.443 -86.705,-8.262 12.386,-107.413 -28.903,-16.524 h 28.903 l 24.773,-198.299 8.257,-78.493 -20.644,-33.049 24.773,-33.05 4.131,-8.262 c 20.643,-190.036 -115.611,-359.415 -305.542,-384.203 v 0 c -189.929,-20.656 -363.345,115.674 -383.989,305.709 l -4.128,57.838 -12.387,95.017 -37.16,322.235 -70.192,-8.263 -12.387,128.068 c -615.209,-70.231 -201.573,-123.936 -882.844,-156.986 -437.665,4.13 -867.073,12.394 -1284.094,24.787 l 107.353,-388.334 198.188,53.706 28.902,-111.542 -20.644,-20.656 v -8.263 l -173.415,-45.443 49.547,-185.905 -127.996,-37.18 c -24.774,78.493 -28.902,99.149 -49.548,185.905 -70.191,-16.526 -123.867,-33.05 -206.445,-53.706 -20.646,74.362 -20.646,70.229 -37.16,132.198 l 206.445,57.836 -115.609,425.515 c -503.728,16.525 -990.941,37.181 -1461.636,61.969 h -61.935 l 4.129,-132.199 -37.16,-20.656 h 37.16 l 4.13,-252.004 v -103.281 l -24.774,-37.18 24.774,-45.444 v -12.392 c 4.129,-239.611 -189.932,-442.041 -429.408,-446.171 v 0 c -243.607,-4.133 -441.795,190.035 -445.923,433.776 v 70.231 l -4.129,123.937 -4.129,408.989 -90.837,-4.131 v 78.493 c -685.4,45.444 -808.896,103.28 -1428.233,165.248 l -119.739,-446.171 280.767,-74.362 c -24.775,-86.755 -24.775,-82.624 -49.548,-185.905 -115.61,33.051 -185.802,49.576 -280.766,74.363 -33.032,-119.805 -37.16,-144.592 -66.062,-252.003 l -181.672,49.573 70.19,252.004 -235.348,61.968 v 12.394 l -28.904,24.788 41.291,156.986 272.508,-74.362 107.353,417.252 c -1692.856,173.512 -1055.517,396.596 -2442.834,632.075 l -4.128,-61.968 -8.258,-4.13 -20.644,-41.313 -86.708,8.262 -12.387,-103.28 -28.902,-12.394 28.902,-4.131 -20.644,-198.298 -8.258,-78.493 -24.773,-28.919 16.515,-37.18 v -12.394 c -20.644,-185.904 -194.059,-326.366 -379.861,-305.71 v 0 c -189.93,20.656 -330.312,190.036 -309.668,380.072 l 4.13,53.705 12.385,99.15 33.033,322.234 -70.192,4.131 16.515,169.38 c -900.103,156.987 -717.689,318.103 -1597.148,470.958 -404.634,66.099 -796.881,123.936 -1176.742,173.51 l 53.676,-561.844 289.025,28.919 c 8.258,-86.756 8.258,-86.756 16.516,-190.036 -119.74,-8.263 -189.931,-16.525 -289.025,-24.787 12.386,-128.068 16.516,-152.855 24.774,-264.398 l -185.801,-16.525 -24.775,260.267 -239.477,-20.656 -4.128,8.261 -37.161,16.525 -12.387,161.118 276.639,24.787 -57.806,599.025 c -1143.71,132.199 -1126.451,165.248 -2105.004,128.068 l 4.131,-95.018 -12.389,-8.262 -16.515,-57.836 h -111.481 v -132.2 l -33.0324,-20.656 h 33.0324 l 4.129,-256.135 4.129,-99.149 -24.7736,-37.181 24.7736,-45.443 v -12.393 c 4.129,-239.611 -189.9308,-442.04 -429.4078,-446.171 v 0 c -243.6057,-4.131 -441.7946,190.035 -445.9234,433.776 l -4.1277,70.231 v 123.936 l -8.2584,408.99 -86.7078,-4.131 -4.1287,111.542 c -594.5638,-53.706 -639.6101,-132.198 -1205.2729,-223.084 l 12.3879,-128.068 -4.1304,-4.131 -12.3858,-45.444 -86.7074,-12.393 12.3869,-103.281 -24.7739,-16.524 h 24.7739 l 24.7728,-198.298 8.2575,-78.493 -16.5151,-33.05 24.7738,-33.05 v -8.262 c 20.6435,-190.037 -115.6105,-363.547 -305.5407,-384.203 v 0 c -189.9291,-20.656 -359.2156,115.674 -383.9895,305.711 l -4.1293,53.704 -12.3859,99.15 -33.0325,318.103 -70.1902,-8.263 -16.5162,123.937 c -1048.745,-198.298 -1027.3569,-437.909 -2117.3914,-665.125 l -86.7069,-499.876 284.8944,-49.575 c -16.5151,-86.756 -16.5151,-82.624 -33.0311,-185.905 -119.738,20.656 -189.9299,33.05 -284.8954,49.576 -20.6438,-123.937 -24.7735,-148.725 -45.4173,-260.267 l -181.6725,33.05 45.4173,260.265 -243.6058,41.312 v 8.264 l -28.9022,24.786 28.9022,161.118 276.6379,-49.575 70.191,425.514 c -871.2013,-181.773 -730.0751,-351.152 -1716.8867,-491.614 l 12.3874,-90.886 -8.2576,-8.262 -8.2584,-45.443 -86.7071,-8.262 12.3864,-107.413 -28.9024,-16.524 h 28.9024 l 20.6448,-198.299 12.3872,-78.493 -20.6447,-33.049 24.7735,-33.05 4.1287,-8.262 c 20.6449,-190.036 -115.6093,-359.415 -305.5402,-384.203 v 0 c -189.9299,-20.656 -363.3449,115.674 -383.9887,305.709 l -8.2584,57.838 -8.2576,95.017 -37.1599,322.235 -70.1919,-8.263 -12.3872,128.068 C 1460.5939,19974.182 816.48236,19920.477 135.21101,19887.427 V 35565.37 H 24052.957 45855.211 V 23510.498 19887.427 c -437.666,4.13 -867.074,12.394 -1279.966,24.787 l 103.224,-388.334 198.188,53.706 28.902,-111.542 -20.645,-20.656 v -8.263 l -173.414,-45.443 z"
   class="fil66"
   sodipodi:nodetypes="ccccccccccccccccccccccccccccccccccccccccccccccccccccccccccccccccccccccccccccccccccccccccccccccccccccccccccccccccccccccccccccccccccccccccccccccccccccccccccccccccccccccccccccccccccccccccccccccccccccccccccccccccccccccccccccccccccccccccccccccccccccccccccccccccccccccccccccccccccccccccccccccccccccccccccccccccccccccc"
   inkscape:export-filename="C:\4.0 MyProjects\LearnAll\2.0 Runner\Sprites\TiledMapsDark\BC\BC_3.png"
   inkscape:export-xdpi="96"
   inkscape:export-ydpi="96" /><path
   inkscape:connector-curvature="0"
   style="fill:url(#linearGradient7556);stroke-width:4.10638142"
   id="path7534"
   d="m 26264.837,24592.876 c 1360.423,-415.94 936.156,-964.105 3616.062,-1714.453 l 126.533,-479.22 -293.883,-78.493 c 24.491,-90.886 20.409,-90.886 48.98,-194.166 122.452,33.049 195.923,49.573 293.884,78.492 36.735,-128.067 40.816,-152.855 73.47,-268.529 l 187.759,49.574 -73.472,268.529 248.985,66.1 v 12.393 l 28.572,28.919 -44.9,165.249 -281.637,-78.493 -106.124,396.595 c 893.893,-132.198 1816.357,-264.397 2767.394,-388.333 l 4.081,-227.216 h 126.533 l 12.245,-586.632 v -181.774 l 4.082,-103.281 c 4.082,-347.021 289.801,-627.944 636.745,-623.812 v 0 c 342.863,4.131 620.418,297.448 616.337,644.469 v 16.525 l -40.818,66.099 36.736,57.837 v 144.593 l -4.081,363.546 -53.062,4.131 48.981,28.918 v 190.036 l 159.186,4.131 4.082,12.394 c 1346.961,-156.986 1194.836,-301.579 2696.902,-421.383 l -195.92,-739.486 -387.763,103.28 -57.144,-223.086 36.735,-37.181 v -16.524 l 338.781,-90.887 -97.961,-367.678 257.147,-70.23 c 40.818,156.986 48.981,190.034 97.961,367.677 134.696,-37.181 232.657,-61.968 400.008,-107.411 36.735,144.592 36.735,140.461 69.388,264.397 l -400.007,107.412 208.168,789.061 c 1151.039,-90.886 1828.234,-169.38 3089.48,-235.479 v -49.575 l 93.879,4.131 4.082,-425.514 4.082,-132.199 v -74.362 c 4.081,-252.003 212.249,-458.564 461.232,-454.432 v 0 c 248.983,4.13 453.069,214.822 448.987,466.826 v 12.393 l -28.573,49.575 24.491,41.312 v 103.28 l -4.081,264.398 -36.735,4.131 36.735,16.525 -4.083,128.067 c 726.544,-33.05 1469.413,-57.837 2232.691,-78.493 l 236.738,-805.585 -383.678,-115.675 65.306,-223.084 53.062,-12.395 8.163,-12.393 334.701,99.15 106.123,-367.679 253.066,78.494 c -44.899,156.984 -53.062,190.035 -106.124,363.545 134.696,41.312 232.657,70.232 400.008,119.806 -44.899,144.592 -40.818,140.46 -77.553,264.397 l -400.007,-119.805 -208.167,722.962 c 612.255,-16.526 1236.756,-28.918 1877.584,-37.181 V 32252.14 35701.7 H 135.21101 V 21420.106 c 391.84414,20.655 775.52334,41.312 1151.04039,70.23 l 24.4902,-214.823 102.0426,12.395 48.9806,-462.696 16.3262,-144.593 8.164,-78.493 c 32.6534,-272.66 277.5551,-470.958 546.948,-442.039 v 0 c 273.4734,33.05 469.3954,280.922 436.7421,553.583 v 16.523 l -36.7359,45.444 24.4903,49.575 -12.2446,111.542 -32.6544,289.185 -40.8165,-4.131 40.8165,24.787 -16.3262,152.855 122.4504,12.393 16.3272,70.231 8.1631,8.262 -12.2447,99.15 c 1379.6149,128.067 1631.9456,293.315 2876.8646,483.352 l -61.2251,-355.285 -395.9248,70.231 -36.7359,-227.216 40.8174,-37.182 v -16.524 l 346.9443,-61.968 -65.3067,-371.81 261.2287,-45.443 c 24.4903,156.986 32.6534,194.167 61.2252,371.809 138.7785,-24.787 240.8211,-41.313 412.252,-70.231 24.4902,148.724 24.4902,144.593 44.8989,272.661 l -408.1704,70.23 73.4708,446.171 c 1559.2098,243.741 1978.8919,528.794 3395.2419,826.242 l 12.2455,-111.543 102.0433,12.393 48.9799,-462.695 16.3259,-140.461 8.164,-82.624 c 32.653,-272.661 277.5554,-470.958 546.9488,-442.04 v 0 c 273.4724,33.049 469.3954,280.923 436.7414,557.713 v 12.394 l -36.736,45.443 24.49,49.575 -12.245,111.543 -28.572,289.185 h -40.817 l 36.736,24.787 -16.327,148.723 122.452,16.526 16.326,66.098 8.163,8.264 -16.327,156.985 c 893.893,194.167 725.809,388.334 1595.212,574.239 l 4.081,-37.182 h 126.533 l 8.163,-586.632 4.082,-181.772 v -103.281 c 4.081,-351.152 293.881,-632.075 636.745,-623.813 v 0 c 346.945,4.131 624.502,293.316 616.337,644.469 v 16.524 l -36.735,61.969 36.735,57.837 -4.082,144.592 -4.081,367.678 -53.063,4.132 53.063,24.787 -4.082,194.166 h 159.186 l 28.572,86.756 12.245,8.262 -4.081,256.135 c 1200.02,247.873 1358.472,470.958 2582.982,656.863 l 69.39,-727.093 -400.007,-41.313 24.49,-231.348 48.98,-20.654 4.082,-16.526 346.944,33.05 36.736,-375.941 265.311,24.788 c -16.328,161.117 -20.408,198.298 -36.735,375.939 138.777,16.526 240.821,24.788 412.251,41.314 -12.245,148.722 -12.245,144.591 -24.49,272.659 l -412.251,-37.18 -69.391,743.617 c 1820.44,264.397 1614.886,437.908 3651.655,454.433 l -8.164,-86.755 97.961,-12.394 -44.899,-462.696 -16.327,-140.46 -8.164,-82.625 c -28.571,-272.66 167.351,-520.532 440.824,-549.451 v 0 c 269.393,-28.918 514.294,173.511 542.868,446.171 l 4.081,12.393 -24.49,53.706 32.653,41.312 12.244,115.674 28.572,285.053 -40.816,8.263 44.899,16.525 16.326,152.855 122.451,-16.525 28.573,66.099 12.245,4.132 16.327,140.46 c 1697.986,-37.18 1941.786,-190.035 3909.167,-483.351 l -114.287,-446.171 -387.762,103.28 -61.225,-223.085 40.817,-41.312 v -12.394 l 338.78,-90.887 -97.959,-367.677 253.064,-70.23 c 44.9,156.985 53.063,190.035 97.962,367.677 134.694,-37.182 236.738,-66.1 400.005,-107.411 40.817,144.592 40.817,140.461 73.471,264.398 l -404.088,107.41 126.532,475.09 c 281.639,-45.443 563.276,-90.886 853.076,-140.461 z"
   class="fil67"
   sodipodi:nodetypes="ccccccccccccccccccccccccccccccccccccccccccccccccccccccccccccccccccccccccccccccccccccccccccccccccccccccccccccccccccccccccccccccccccccccccccccccccccccccccccccccccccccccccccccccccccccccccccccccccccccccccccccccccccc"
   inkscape:export-filename="C:\4.0 MyProjects\LearnAll\2.0 Runner\Sprites\TiledMapsDark\BC\BC_2.png"
   inkscape:export-xdpi="96"
   inkscape:export-ydpi="96" /><path
   style="fill:#0d1516;stroke-width:4.13006353"
   inkscape:connector-curvature="0"
   id="path7536"
   d="m 2323.5376,23634.435 264.2506,-70.232 c 41.2896,161.119 49.5471,194.169 99.0943,371.81 136.254,-37.181 239.477,-61.969 408.7621,-107.411 41.2897,144.592 37.1609,144.592 70.1919,268.529 l -408.7622,107.411 227.0899,859.292 c 1011.585,33.049 1453.0075,74.361 2394.4007,119.805 h 127.9966 l -4.1297,-264.398 70.1919,-37.18 -74.3207,-4.132 -4.1288,-508.139 -4.1287,-198.297 49.547,-82.625 -53.6759,-86.756 v -24.787 c -8.2575,-483.351 379.8599,-884.079 862.9438,-888.21 v 0 c 483.0829,-8.263 883.5886,380.072 891.846,863.423 l 4.1288,140.461 v 247.873 l 12.3863,813.848 h 181.6724 v 152.856 c 1370.8017,95.017 2142.5382,202.429 3385.3421,326.364 l 239.478,-888.21 -561.533,-152.854 c 45.418,-169.38 45.418,-165.249 99.094,-367.678 231.219,61.968 371.603,99.149 561.533,152.855 61.933,-243.742 74.321,-293.317 136.253,-508.139 l 355.087,95.018 -136.253,508.138 474.825,123.937 v 24.787 l 53.676,53.706 -82.58,309.841 -540.886,-144.593 -222.962,830.373 c 3389.841,347.023 2644.034,793.192 5414.538,1264.151 l 12.386,-119.806 16.516,-12.392 41.29,-86.756 173.414,20.655 20.644,-210.692 61.934,-20.655 -57.804,-12.393 41.289,-396.597 16.515,-156.986 49.547,-57.836 -33.031,-74.363 v -16.524 c 41.289,-380.071 383.99,-656.863 759.721,-615.551 v 0 c 379.86,37.181 656.497,380.072 619.338,760.143 l -12.387,111.543 -20.645,194.167 -70.191,640.337 140.382,12.394 -33.03,338.759 c 1808.465,318.104 1813.147,412.343 3554.177,804.304 3561.819,801.878 258.734,877.605 2881.359,786.212 v -194.166 l 16.516,-16.526 37.161,-115.674 h 222.961 l -4.129,-268.529 70.192,-37.18 -70.192,-4.132 -8.258,-504.007 -4.129,-202.429 53.675,-78.493 -53.675,-86.755 -4.129,-24.788 c -4.129,-483.352 383.99,-884.079 867.072,-892.341 v 0 c 478.956,-8.263 883.589,380.071 887.718,863.422 l 4.129,140.462 4.129,252.003 12.387,813.848 177.543,-4.13 4.129,218.954 c 1189.128,-107.411 1283.35,-260.266 2414.674,-442.04 l -28.903,-252.003 12.387,-12.394 20.645,-95.018 173.413,-20.656 -20.644,-206.561 49.548,-37.18 -53.676,4.13 -45.418,-396.595 -16.516,-156.986 33.032,-66.1 -49.548,-66.099 -4.128,-20.656 c -41.289,-375.94 235.347,-722.961 611.08,-764.274 v 0 c 379.86,-41.312 722.559,231.347 767.978,611.419 l 12.386,111.543 20.646,194.167 74.32,640.337 136.254,-16.524 28.903,243.741 c 2097.489,-396.597 2054.713,-875.816 4238.91,-1334.382 l 173.415,-995.621 -569.79,-95.017 c 28.902,-177.643 28.902,-173.511 61.934,-375.941 239.477,41.312 379.859,66.1 573.919,99.149 41.288,-247.872 49.547,-297.446 90.836,-520.533 l 363.344,66.101 -90.836,516.4 483.084,82.625 v 24.787 l 61.934,45.443 -57.805,318.103 -549.146,-95.018 -148.642,851.03 c 1746.532,-363.547 2517.898,-706.438 4491.52,-983.228 l -20.645,-185.904 12.387,-12.395 20.645,-90.886 173.415,-20.656 -20.645,-210.691 49.548,-33.05 -53.677,4.131 -45.418,-400.728 -16.516,-156.986 33.032,-66.099 -49.547,-61.968 -4.129,-20.656 c -41.289,-380.071 235.348,-722.962 611.079,-764.274 v 0 c 379.861,-45.444 722.559,231.349 767.978,607.288 l 12.388,111.542 20.644,198.299 70.192,636.206 140.382,-16.525 28.904,264.397 c 1230.416,-140.46 2514.51,-252.003 3877.054,-322.233 V 35701.7 H 135.21101 v -3449.56 -7254.405 c 883.58839,12.393 1738.27479,33.048 2568.18649,57.836 l -206.445,-780.798 -400.5057,107.411 -57.8047,-227.217 37.1599,-41.312 4.1298,-16.524 342.6999,-90.887 z"
   class="fil68"
   sodipodi:nodetypes="ccccccccccccccccccccccccccccccccccccccccccccccccccccccccccccscccccccccccccccccccccccccccccccccccccccccccccccccccccccccccccccccccccccccccccccccccccccccc"
   inkscape:export-filename="C:\4.0 MyProjects\LearnAll\2.0 Runner\Sprites\TiledMapsDark\BC\BC_1.png"
   inkscape:export-xdpi="96"
   inkscape:export-ydpi="96" /></svg>